<?xml version="1.0" standalone="no"?>
<!DOCTYPE svg PUBLIC "-//W3C//DTD SVG 20010904//EN"
 "http://www.w3.org/TR/2001/REC-SVG-20010904/DTD/svg10.dtd">
<svg version="1.0" xmlns="http://www.w3.org/2000/svg"
 width="211.000000pt" height="211.000000pt" viewBox="0 0 211.000000 211.000000"
 preserveAspectRatio="xMidYMid meet">
<metadata>
Created by potrace 1.14, written by Peter Selinger 2001-2017
</metadata>
<g transform="translate(0.000000,211.000000) scale(0.100000,-0.100000)"
fill="#000000" stroke="none">
<path d="M54 2092 c-12 -9 -27 -27 -33 -39 -14 -28 -16 -1959 -1 -1997 22 -58
-19 -56 1035 -56 1049 0 1007 -2 1033 55 16 35 17 1962 1 1998 -6 13 -23 31
-39 40 -26 16 -111 17 -1002 17 -907 0 -974 -2 -994 -18z m1996 -22 l25 -19 3
-991 2 -991 -24 -24 -25 -25 -966 0 c-1069 0 -1018 -3 -1030 63 -3 17 -4 468
-3 1000 l3 969 24 19 c22 18 53 19 995 19 942 0 972 -1 996 -20z"/>
<path d="M1145 1479 c-60 -15 -112 -28 -115 -28 -3 -1 10 -10 28 -21 l32 -20
1 -322 c1 -463 3 -437 -39 -459 -26 -13 -23 -14 50 -17 42 -2 114 -2 160 0 74
3 80 4 56 15 -14 6 -30 17 -34 24 -8 14 -12 246 -4 259 3 5 54 -61 114 -146
l110 -154 113 0 c69 0 113 4 113 10 0 6 -6 10 -14 10 -22 0 -70 57 -190 224
l-114 159 74 70 c92 87 129 114 165 122 56 13 28 22 -66 21 -91 0 -117 -8 -75
-21 37 -12 20 -42 -77 -131 -117 -108 -146 -134 -153 -134 -3 0 -5 126 -4 279
2 204 -1 281 -9 283 -7 3 -61 -8 -122 -23z"/>
<path d="M364 1219 c-2 -4 10 -12 26 -19 19 -8 36 -27 48 -54 22 -46 206 -491
216 -518 3 -10 11 -18 18 -19 7 -1 25 -2 40 -3 30 -3 15 -38 153 357 36 104
70 197 75 207 6 10 26 24 45 31 19 7 35 16 35 19 0 4 -40 6 -90 6 -49 0 -90
-4 -90 -8 0 -4 6 -8 14 -8 8 0 23 -8 34 -17 l21 -18 -39 -110 c-104 -298 -98
-282 -108 -255 -95 251 -131 357 -126 372 3 10 16 21 30 24 13 3 24 9 24 13 0
9 -320 9 -326 0z"/>
</g>
</svg>
