<svg width="94" height="144" viewBox="0 0 94 144" fill="none" xmlns="http://www.w3.org/2000/svg">
<path d="M8.25591 101.729C9.97925 101.729 11.2255 102.007 11.9946 102.562C12.7779 103.118 13.1696 103.908 13.1696 104.934C13.1696 105.959 12.8918 106.778 12.3364 107.39C11.7952 107.989 10.9976 108.345 9.94364 108.459C11.3252 108.701 12.3292 109.114 12.9559 109.698C13.5826 110.267 13.8959 111.079 13.8959 112.133C13.8959 113.443 13.3547 114.419 12.2723 115.06C11.1899 115.687 9.78698 116 8.06364 116H2.46637V115.487L4.06864 115.295V102.434L2.21001 102.242V101.729H8.25591ZM9.15319 109.078C8.61198 108.964 8.08501 108.907 7.57228 108.907C7.05955 108.907 6.6394 108.914 6.31182 108.929V115.402C6.66788 115.502 6.98834 115.551 7.27319 115.551C7.57228 115.551 7.92122 115.53 8.32001 115.487C8.73304 115.445 9.20304 115.331 9.73001 115.145C10.2712 114.946 10.7199 114.569 11.0759 114.013C11.432 113.458 11.61 112.774 11.61 111.962C11.61 110.381 10.7911 109.42 9.15319 109.078ZM6.31182 102.306V108.288H7.2091C9.61607 108.288 10.8196 107.191 10.8196 104.998C10.8196 104.043 10.5703 103.36 10.0718 102.947C9.58758 102.52 8.79713 102.306 7.70046 102.306H6.31182ZM21.477 116H16.5634V115.487L17.9734 115.38V100.661L16.072 100.575V100.084L20.067 99.6355V115.38L21.477 115.487V116ZM28.3813 116.256C26.1025 116.256 24.9631 115.16 24.9631 112.966C24.9631 111.357 25.013 109.121 25.1127 106.258L23.4036 106.173V105.681L27.2063 105.446C27.1066 109.206 27.0568 111.763 27.0568 113.116C27.0568 113.928 27.2063 114.533 27.5054 114.932C27.8045 115.331 28.303 115.53 29.0008 115.53C29.713 115.53 30.3824 115.138 31.009 114.355C31.6357 113.557 31.949 112.86 31.949 112.261V106.258L30.1758 106.173V105.681L34.0427 105.446V115.338L35.8586 115.423L35.8799 115.915L32.0345 116.171L32.184 113.864H31.9277C31.1871 115.459 30.0049 116.256 28.3813 116.256ZM43.0666 116.235C41.5997 116.235 40.4175 115.737 39.5203 114.74C38.623 113.743 38.1744 112.425 38.1744 110.787C38.1744 109.149 38.6444 107.832 39.5844 106.835C40.5386 105.838 41.735 105.34 43.1734 105.34C44.6119 105.34 45.6872 105.667 46.3994 106.322C47.1115 106.963 47.4675 107.86 47.4675 109.014C47.4675 109.356 47.4391 109.698 47.3821 110.04H40.4816V110.787C40.4816 112.382 40.7095 113.593 41.1653 114.419C41.621 115.231 42.3687 115.637 43.4084 115.637C44.8754 115.637 46.0077 114.996 46.8053 113.714C47.1186 113.814 47.2753 113.963 47.2753 114.163C47.2753 114.519 46.9477 114.932 46.2925 115.402C45.9792 115.63 45.5377 115.829 44.968 116C44.3983 116.157 43.7645 116.235 43.0666 116.235ZM45.438 108.565C45.438 107.91 45.3027 107.348 45.0321 106.878C44.6618 106.251 44.0636 105.938 43.2375 105.938C41.6994 105.938 40.8021 107.049 40.5457 109.27H45.3953C45.4237 109.028 45.438 108.793 45.438 108.565ZM64.9916 102.434C64.2225 102.163 63.432 102.028 62.6202 102.028C61.8084 102.028 61.0963 102.263 60.4838 102.733C59.8714 103.189 59.5652 103.873 59.5652 104.784C59.5652 105.667 59.9426 106.344 60.6975 106.814C61.1105 107.07 61.4452 107.255 61.7016 107.369C61.9722 107.483 62.3567 107.633 62.8552 107.818C63.3679 108.003 63.7169 108.138 63.902 108.224C64.0872 108.295 64.3578 108.416 64.7138 108.587C65.0841 108.743 65.3547 108.886 65.5257 109.014C65.7108 109.142 65.9316 109.32 66.1879 109.548C66.4443 109.776 66.6366 110.004 66.7647 110.232C67.0781 110.816 67.2347 111.45 67.2347 112.133C67.2347 113.344 66.7434 114.334 65.7607 115.103C64.7779 115.872 63.5032 116.256 61.9366 116.256C60.7402 116.256 59.6222 116.057 58.5825 115.658C58.0697 115.473 57.6496 115.217 57.322 114.889C56.9944 114.562 56.8307 114.184 56.8307 113.757C56.8307 113.059 57.3363 112.582 58.3475 112.325C58.5041 113.18 58.8032 113.871 59.2447 114.398C59.6863 114.925 60.142 115.274 60.612 115.445C61.0963 115.615 61.6802 115.701 62.3638 115.701C63.0617 115.701 63.7169 115.48 64.3293 115.039C64.9417 114.583 65.2479 113.842 65.2479 112.817C65.2479 112.033 64.8919 111.393 64.1797 110.894C63.61 110.51 62.905 110.146 62.0647 109.805C61.2387 109.463 60.6832 109.235 60.3984 109.121C60.1135 108.993 59.7432 108.8 59.2875 108.544C58.846 108.273 58.5184 108.01 58.3047 107.754C57.7493 107.084 57.4716 106.315 57.4716 105.446C57.4716 104.108 57.9487 103.096 58.9029 102.413C59.8572 101.729 61.1746 101.387 62.8552 101.387C63.8664 101.387 65.0414 101.501 66.3802 101.729V104.87H65.7179L64.9916 102.434ZM76.3856 105.575H80.5728V106.066L78.9919 106.472L74.9115 109.975L79.6542 115.338L81.0856 115.487V116H76.0224V115.487L77.2187 115.38L73.2451 110.702V115.38L74.5697 115.487V116H69.7628V115.487L71.1515 115.38V100.661L69.2715 100.575L69.2501 100.084L73.2451 99.6355V110.445L77.7742 106.472L76.3856 106.066V105.575ZM86.1803 120.358C85.8954 120.686 85.5322 120.978 85.0907 121.234C84.6492 121.505 84.2006 121.64 83.7448 121.64C83.3033 121.64 82.9544 121.519 82.698 121.277C82.4559 121.049 82.3348 120.736 82.3348 120.337C82.3348 119.952 82.5129 119.561 82.8689 119.162C83.2677 119.618 83.7163 119.845 84.2148 119.845C84.9269 119.845 85.5394 119.532 86.0521 118.905C86.5648 118.293 87.0633 117.325 87.5476 116L83.4457 106.258L82.3562 106.13V105.575H86.9066V106.13L85.4326 106.258L88.4876 113.714L91.1153 106.536L89.4062 106.13V105.575H93.508V106.13L92.0126 106.536L88.4021 116C88.1457 116.655 87.9463 117.161 87.8039 117.517C87.6615 117.873 87.4265 118.35 87.0989 118.948C86.7856 119.561 86.4794 120.031 86.1803 120.358ZM6.76001 132.488H7.40092C8.93056 132.488 9.69537 131.847 9.69537 130.565C9.69537 129.933 9.54583 129.476 9.24674 129.194C8.94765 128.903 8.4691 128.758 7.8111 128.758C7.55474 128.758 7.20438 128.775 6.76001 128.809V132.488ZM6.73437 128.412L8.19565 128.373C10.1355 128.373 11.1054 129.104 11.1054 130.565C11.1054 131.198 10.8875 131.719 10.4516 132.129C10.0244 132.531 9.46892 132.732 8.78528 132.732C8.72547 132.732 8.61865 132.723 8.46483 132.706V132.732C9.37919 132.86 10.0073 133.159 10.3491 133.629C10.6995 134.09 10.8746 134.8 10.8746 135.757C10.8746 136.355 10.9857 136.701 11.2079 136.795C11.3105 136.863 11.4515 136.897 11.6309 136.897C11.8189 136.897 12.0582 136.842 12.3487 136.731V137.051C11.8958 137.214 11.4814 137.295 11.1054 137.295C10.2679 137.295 9.75092 136.936 9.55438 136.218C9.5031 136.03 9.47319 135.765 9.46465 135.423C9.46465 135.082 9.45183 134.778 9.42619 134.513C9.40056 134.248 9.34074 133.983 9.24674 133.719C9.0331 133.146 8.44347 132.86 7.47783 132.86H6.76001V136.628L7.74701 136.718V137H4.47837V136.731L5.43974 136.628V128.835L4.32456 128.707V128.373C4.87147 128.399 5.45683 128.412 6.08065 128.412H6.73437ZM13.4409 137V136.692L14.5561 136.577V128.86L13.4409 128.719V128.437H19.5808L19.5936 130.258H19.2603L18.8245 128.899L15.8763 128.86V132.309H18.4656L18.863 131.36H19.1193V133.744H18.8502L18.4656 132.77H15.8763V136.59L19.2091 136.551L19.8115 135.09H20.1448L19.991 137H13.4409ZM30.1901 137H26.7292V136.731L27.7291 136.577L26.6011 133.629H23.717L22.6402 136.359L23.7811 136.692V137H21.1021V136.692L22.0762 136.359L25.2295 128.437H25.8576L29.2031 136.577L30.1901 136.692V137ZM26.4088 133.155L25.1526 130.04L23.8964 133.155H26.4088ZM31.0459 128.437H34.5965V128.745L33.4813 128.86V136.59L36.7115 136.551L37.3139 135.09H37.6472L37.4934 137H31.0459V136.692L32.161 136.577V128.86L31.0459 128.745V128.437ZM42.5171 137V136.692L43.6323 136.577V128.86L42.5171 128.719V128.437H48.657L48.6699 130.258H48.3366L47.9008 128.899L44.9526 128.86V132.309H47.5419L47.9392 131.36H48.1956V133.744H47.9264L47.5419 132.77H44.9526V136.59L48.2853 136.551L48.8878 135.09H49.221L49.0672 137H42.5171ZM55.7029 128.86C55.2415 128.698 54.7672 128.617 54.2801 128.617C53.793 128.617 53.3658 128.758 52.9983 129.04C52.6308 129.313 52.4471 129.724 52.4471 130.27C52.4471 130.8 52.6736 131.206 53.1265 131.488C53.3743 131.642 53.5751 131.753 53.7289 131.821C53.8913 131.89 54.122 131.98 54.4211 132.091C54.7288 132.202 54.9381 132.283 55.0492 132.334C55.1603 132.377 55.3227 132.45 55.5363 132.552C55.7585 132.646 55.9208 132.732 56.0234 132.808C56.1345 132.885 56.2669 132.992 56.4208 133.129C56.5746 133.266 56.6899 133.402 56.7668 133.539C56.9548 133.889 57.0488 134.27 57.0488 134.68C57.0488 135.406 56.754 136 56.1644 136.462C55.5748 136.923 54.8099 137.154 53.8699 137.154C53.1521 137.154 52.4813 137.034 51.8575 136.795C51.5498 136.684 51.2978 136.53 51.1012 136.333C50.9047 136.137 50.8064 135.91 50.8064 135.654C50.8064 135.235 51.1098 134.949 51.7165 134.795C51.8105 135.308 51.9899 135.722 52.2548 136.039C52.5198 136.355 52.7932 136.564 53.0752 136.667C53.3658 136.769 53.7161 136.821 54.1263 136.821C54.545 136.821 54.9381 136.688 55.3056 136.423C55.673 136.15 55.8568 135.705 55.8568 135.09C55.8568 134.62 55.6431 134.236 55.2158 133.936C54.874 133.706 54.451 133.488 53.9468 133.283C53.4512 133.078 53.1179 132.941 52.947 132.873C52.7761 132.796 52.5539 132.68 52.2805 132.526C52.0156 132.364 51.819 132.206 51.6908 132.052C51.3576 131.651 51.1909 131.189 51.1909 130.668C51.1909 129.865 51.4772 129.258 52.0498 128.848C52.6223 128.437 53.4128 128.232 54.4211 128.232C55.0278 128.232 55.7328 128.301 56.5361 128.437V130.322H56.1388L55.7029 128.86ZM66.0002 130.386H65.6157L65.1799 128.912L62.9111 128.886V136.577L64.1031 136.692V137H60.3987V136.692L61.5908 136.577V128.886L59.322 128.912L58.8861 130.386H58.5144V128.45L62.2573 128.425L66.0002 128.45V130.386ZM75.1689 137H71.708V136.731L72.7079 136.577L71.5799 133.629H68.6958L67.619 136.359L68.7599 136.692V137H66.0809V136.692L67.055 136.359L70.2083 128.437H70.8364L74.1819 136.577L75.1689 136.692V137ZM71.3876 133.155L70.1314 130.04L68.8752 133.155H71.3876ZM82.5788 130.386H82.1942L81.7584 128.912L79.4896 128.886V136.577L80.6817 136.692V137H76.9772V136.692L78.1693 136.577V128.886L75.9005 128.912L75.4647 130.386H75.0929V128.45L78.8359 128.425L82.5788 128.45V130.386ZM83.9884 137V136.692L85.1036 136.577V128.86L83.9884 128.719V128.437H90.1284L90.1412 130.258H89.8079L89.3721 128.899L86.4239 128.86V132.309H89.0132L89.4105 131.36H89.6669V133.744H89.3977L89.0132 132.77H86.4239V136.59L89.7566 136.551L90.3591 135.09H90.6924L90.5385 137H83.9884Z" fill="black"/>
<path fill-rule="evenodd" clip-rule="evenodd" d="M0.0199473 18.4605C0.0199473 28.5122 0.12039 36.736 0.243306 36.736C0.36588 36.736 0.968539 36.3499 1.58243 35.878C2.19633 35.4061 2.78503 35.02 2.89058 35.02C2.99613 35.02 4.42378 34.2714 6.06288 33.3568C9.81673 31.2616 12.1123 30.3991 15.3425 29.8712C18.4977 29.3554 23.0027 29.7535 23.0027 30.548C23.0027 30.8257 22.6932 31.2118 22.3149 31.406C21.9363 31.6006 20.9404 32.1625 20.1018 32.655C19.2628 33.1474 17.7977 33.6389 16.8457 33.7474C13.1695 34.1661 9.0377 36.0375 2.74383 40.1347C1.71386 40.8053 0.679808 41.5394 0.445554 41.7659C-0.0437234 42.2399 -0.184004 55.2688 0.299826 55.2688C0.454066 55.2688 0.96207 54.6899 1.42922 53.9818C6.14562 46.833 8.78199 43.7043 11.6564 41.8452C12.9604 41.0016 14.0547 40.6272 16.0796 40.3313C19.2162 39.8728 19.8934 40.1313 19.7123 41.7162C19.6166 42.5515 19.3738 42.7811 18.2359 43.1133C14.1463 44.3077 7.7888 49.4845 1.80103 56.4968L0.0199473 58.5825V75.2871V91.9914H6.82965C14.6652 91.9914 14.1429 92.3051 12.8283 88.3878C10.0418 80.0844 11.3952 71.6849 16.6438 64.7069C18.6162 62.0848 20.2768 60.4169 20.9152 60.4169C23.0562 60.4169 22.955 61.7742 20.6125 64.4818C18.5083 66.9137 15.9441 71.9347 15.3762 74.7363C14.7592 77.7774 14.2165 87.5171 14.5386 89.7606L14.8345 91.8198L20.1954 91.9142C23.144 91.9664 25.5563 91.9609 25.5563 91.9025C25.5563 91.8438 25.2332 90.8746 24.8383 89.7486C24.3749 88.4283 24.0568 86.4786 23.9418 84.2567C23.6905 79.398 24.2298 77.7221 26.9479 74.9171C29.5829 72.1983 30.2867 72.0511 29.0899 74.4689C28.2911 76.0827 27.7797 80.4969 27.7756 85.8138C27.7732 88.9692 27.9118 90.6948 28.2104 91.2233L28.6493 92L41.1478 91.9097L53.6464 91.8198L53.7608 90.8063C53.9409 89.2094 52.8381 85.1796 51.502 82.5534C50.6695 80.9173 49.4863 79.3712 47.7921 77.7063C46.424 76.362 45.3045 75.0345 45.3045 74.7565C45.3045 74.03 46.422 73.1153 47.3096 73.1153C48.1686 73.1153 51.2064 75.8572 52.6116 77.9009C54.1935 80.2018 55.1874 83.7271 55.4506 87.9732L55.6893 91.8198H74.7564H93.8236L93.9118 74.577L94 57.3342L92.0391 56.1251C83.7776 51.0296 81.2103 49.7776 79.0248 49.7776C78.5277 49.7776 77.8239 49.5508 77.4602 49.2738C76.861 48.817 77.0697 48.7648 79.6935 48.7164C86.3908 48.5925 87.6067 48.8699 91.0997 51.3169C92.2233 52.1038 93.3343 52.8609 93.5683 52.9989C93.9016 53.1956 93.9939 52.0458 93.9939 47.7026V42.1551L88.6312 42.3017C84.7735 42.407 82.62 42.6308 80.9567 43.0993C78.3656 43.8296 77.5525 43.6168 77.3778 42.1633C77.2468 41.0706 77.6427 40.7857 80.5447 39.8852C85.3398 38.3974 87.6877 38.2313 92.7171 39.0248L93.9939 39.2262V28.9432C93.9939 23.2879 93.9023 18.5682 93.7906 18.4557C93.2768 17.9378 87.971 21.8098 84.2247 25.4364C82.7626 26.8521 80.7027 28.6525 79.6472 29.4378C77.5937 30.9654 76.2886 32.4192 76.2886 33.1787C76.2886 33.4364 75.9822 33.6471 75.6077 33.6471C74.784 33.6471 74.7868 33.8126 75.574 31.556C76.9815 27.5227 77.7445 26.2676 80.4024 23.6164C83.8784 20.1487 88.5856 17.169 92.7171 15.8209L93.9939 15.4043V7.70213V0L79.3806 0.0205919L64.7676 0.0411842L65.1061 1.14252C65.2923 1.74861 65.6028 2.78474 65.7959 3.4454C65.989 4.10606 66.2413 4.80105 66.3563 4.98981C66.6097 5.40508 66.5402 5.04884 67.4074 10.3894C68.1538 14.9856 68.3325 20.1641 67.8027 21.8414C67.6301 22.3884 67.3962 23.3998 67.2831 24.0883C67.0329 25.6131 65.7312 26.1684 64.672 25.2023C64.0884 24.6697 64.0308 24.0464 64.0281 18.2357C64.0254 12.3436 63.4915 5.93327 62.6822 2.07259C62.5041 1.22317 62.3516 0.450967 62.3434 0.356586C62.3352 0.262206 60.2746 0.184986 57.7642 0.184986C55.2541 0.184986 53.2443 0.262206 53.2977 0.356586C53.3512 0.450967 54.0263 1.57324 54.7975 2.85098C55.5687 4.12837 56.2 5.24378 56.2 5.32992C56.2 5.41606 56.7427 6.61041 57.406 7.9839C58.9079 11.0936 59.9249 15.0367 60.1857 18.7587C60.4111 21.9786 60.1258 22.6647 58.562 22.6647C57.3372 22.6647 57.215 22.4385 56.8473 19.487C56.6801 18.1434 56.4274 16.9572 56.2865 16.8512C56.1452 16.7455 55.9841 16.3498 55.9286 15.9723C55.5929 13.6917 50.3161 1.10477 49.4764 0.581727C49.0192 0.296869 18.4525 0.195625 18.1722 0.47808C18.051 0.599916 18.7054 0.700818 19.6261 0.70219C23.7524 0.708025 30.3316 3.11593 33.9759 5.95352C36.1665 7.65923 38.8353 10.4175 38.8353 10.9756C38.8353 11.1757 38.9561 11.339 39.1036 11.339C39.6204 11.339 42.2401 15.7454 42.2401 16.6144C42.2401 17.8115 41.0913 18.434 39.9844 17.8369C39.5397 17.597 39.1757 17.2689 39.1757 17.1076C39.1757 16.8183 35.1788 12.461 32.5363 9.86911C28.5792 5.98818 22.0779 2.91275 16.4354 2.25278C13.4517 1.90374 7.48713 1.96414 4.44626 2.37461C3.04175 2.56406 1.76425 2.59117 1.60763 2.43467C1.19564 2.02352 1.7159 1.79426 3.61854 1.54921C4.54193 1.43012 6.29339 1.19331 7.51062 1.02308C8.72786 0.852856 10.4517 0.710427 11.3411 0.706652C12.2304 0.702877 12.9584 0.583786 12.9584 0.442387C12.9584 0.300988 10.0472 0.184986 6.48917 0.184986H0.0199473V18.4605ZM52.679 21.1271C54.2082 21.5973 56.2007 22.3314 57.1064 22.7584C61.3635 24.7651 65.9474 28.9848 68.3403 33.0994C70.8981 37.4968 72.2617 44.0908 71.5586 48.6588C71.2304 50.7921 69.8371 54.7743 69.0659 55.7837C68.9216 55.9724 68.2123 56.9042 67.4895 57.8538C65.8293 60.0359 63.5473 61.9651 60.0996 64.1011C56.5374 66.3079 54.7611 67.1121 51.6099 67.944C42.9752 70.2235 34.2142 68.4262 28.7368 63.251C27.4215 62.0086 24.2948 57.6713 24.7143 57.6713C24.8267 57.6713 24.6095 57.0923 24.2312 56.3843C22.8464 53.7927 22.0858 50.4489 21.9012 46.1445C21.7412 42.4159 21.8158 41.6355 22.6363 38.4225C23.146 36.4271 24.2557 33.4097 25.1488 31.591C26.542 28.7534 27.0548 28.076 29.1314 26.3291C31.8213 24.0667 35.251 22.2752 38.5057 21.4319C41.2977 20.7088 46.3651 20.9428 48.9245 21.9134C57.2695 25.0774 62.1857 35.8454 59.5923 45.2789C58.6171 48.8259 57.3069 51.1007 54.898 53.4286C53.3733 54.902 48.5262 55.3471 44.1591 54.4146C38.5465 53.2162 35.0967 49.5563 35.0967 44.8012C35.0967 42.6819 36.03 40.1398 37.3739 38.5995C39.4604 36.2085 44.1141 35.0138 46.1925 36.3365C47.8823 37.4117 50.0713 42.0539 50.0713 44.5623C50.0713 45.268 49.9909 45.3328 49.5605 44.9728C49.2796 44.7377 49.0498 44.3393 49.0498 44.087C49.0498 42.0456 45.9551 39.3079 43.994 39.6144C42.0069 39.925 40.4744 40.968 39.5479 42.6407C38.7239 44.1285 38.6997 44.3087 39.1151 45.8816C39.6824 48.0287 41.1904 49.5871 43.5847 50.5001C45.1652 51.1027 45.9929 51.1947 48.6375 51.0612C52.1462 50.8841 52.6392 50.6161 54.471 47.89C56.0131 45.5954 56.5405 43.6899 56.5405 40.4154C56.5405 30.9643 49.0873 23.718 40.7478 25.0606C36.8547 25.6876 32.2111 28.2973 30.2118 30.9825C27.7746 34.2563 25.8798 40.029 25.7896 44.458C25.7136 48.1783 25.9258 49.5525 27.0684 52.746C29.5359 59.6402 33.4627 63.2771 39.998 64.7206C48.5081 66.6003 58.8718 62.5293 65.3492 54.763C65.7935 54.2307 66.627 52.7824 67.2014 51.5444C69.372 46.8693 68.642 40.2376 65.2126 33.4755C64.2317 31.5413 63.2858 30.0847 63.0451 30.1379C62.8105 30.1897 62.7019 30.0964 62.8037 29.9303C63.1275 29.4021 59.403 25.8887 56.8193 24.2853C54.3038 22.7244 51.7308 21.6976 48.454 20.9466C47.471 20.7215 46.6664 20.3769 46.6664 20.1813C46.6664 19.6778 49.3249 20.0958 52.679 21.1271ZM76.879 58.2224C79.5137 59.9216 82.4106 62.7623 85.1876 66.3707C87.2666 69.0721 87.5247 69.5745 87.5247 70.9182C87.5247 71.7491 87.3932 72.4289 87.2329 72.4289C87.0721 72.4289 85.9938 71.2658 84.8365 69.8446C82.3285 66.7644 79.6441 64.5724 75.8103 62.4747C72.166 60.4807 71.8623 60.2058 71.8623 58.8992C71.8623 56.5861 73.912 56.3094 76.879 58.2224ZM69.2351 64.7927C70.4319 65.6895 72.2403 67.019 73.2539 67.7477C76.1007 69.7938 78.3241 72.9863 79.5924 76.8497C80.3295 79.0949 80.6223 90.1893 79.9676 91.0661C79.6959 91.4303 79.2815 91.5991 78.9628 91.4759C78.5198 91.3043 78.3877 90.4673 78.242 86.9096C78.0476 82.1721 77.5055 80.0762 75.5668 76.5683C74.5951 74.8101 71.5814 70.0821 71.1783 69.6833C71.0826 69.5889 70.6025 68.894 70.1112 68.1389C69.6195 67.3839 68.5889 66.0711 67.8208 65.2217C65.4547 62.6051 66.0676 62.4191 69.2351 64.7927ZM56.3651 71.1433C57.2984 72.3222 58.1489 73.3642 58.2552 73.4585C59.4244 74.4995 61.9883 82.4374 61.9883 85.0172C61.9883 86.0444 61.8875 86.1899 61.2409 86.0952C60.6617 86.0101 60.3665 85.5602 59.9297 84.0978C59.2691 81.8876 58.4247 80.3706 55.9821 77.0072C53.913 74.158 52.1142 71.0503 52.1142 70.3248C52.1142 69.5608 52.8309 68.9969 53.7996 68.9983C54.4557 68.9993 55.0825 69.523 56.3651 71.1433Z" fill="black"/>
</svg>
